<?xml version="1.0" standalone="no"?>
<!DOCTYPE svg PUBLIC "-//W3C//DTD SVG 20010904//EN"
 "http://www.w3.org/TR/2001/REC-SVG-20010904/DTD/svg10.dtd">
<svg version="1.0" xmlns="http://www.w3.org/2000/svg"
 width="426.000000pt" height="426.000000pt" viewBox="0 0 426.000000 426.000000"
 preserveAspectRatio="xMidYMid meet">
<metadata>
Created by potrace 1.11, written by Peter Selinger 2001-2013
</metadata>
<g transform="translate(0.000000,426.000000) scale(0.100000,-0.100000)"
fill="#000000" stroke="none">
<path d="M1896 3963 c-570 -101 -987 -594 -989 -1168 0 -138 5 -189 26 -273 8
-28 12 -54 10 -56 -14 -14 -279 102 -310 136 -54 60 45 339 188 527 38 50 69
93 69 95 0 30 -163 -30 -405 -149 -255 -125 -407 -242 -459 -356 -49 -105 -16
-225 90 -335 217 -224 728 -419 1363 -519 57 -9 123 -15 146 -13 24 1 41 -1
38 -6 -4 -5 5 -6 19 -3 14 4 28 4 32 0 9 -9 26 -12 141 -20 189 -13 658 -5
685 12 4 2 38 7 76 10 38 3 80 8 94 10 45 7 278 46 297 50 632 129 1099 356
1218 590 37 75 39 160 5 230 -32 66 -118 150 -232 225 -173 114 -601 307 -619
279 -5 -9 0 -25 15 -44 107 -141 181 -288 221 -435 34 -127 33 -139 -13 -171
-53 -38 -211 -105 -338 -144 -7 -2 -5 21 7 66 45 172 43 396 -6 584 -101 388
-408 714 -787 836 -173 55 -412 73 -582 42z"/>
<path d="M1035 1700 c-9 -14 26 -59 117 -154 l73 -75 138 -22 137 -22 51 -79
c193 -302 314 -574 399 -900 21 -81 44 -153 51 -161 19 -20 56 -9 67 22 6 15
10 157 9 353 l-2 327 -31 33 c-41 43 -54 69 -54 108 0 68 55 130 123 137 137
16 209 -154 104 -243 l-32 -27 -3 -321 c-2 -177 -1 -335 3 -353 6 -34 31 -49
64 -38 14 4 26 38 56 153 32 126 64 225 127 392 55 149 311 599 342 601 6 0
22 2 36 5 14 2 57 9 95 15 142 22 144 23 309 217 37 43 10 47 -136 18 -147
-29 -357 -62 -458 -71 -36 -4 -76 -8 -90 -11 -57 -9 -266 -18 -415 -18 -184 0
-317 8 -480 29 -22 2 -62 7 -90 11 -80 9 -344 54 -413 69 -75 18 -89 18 -97 5z"/>
</g>
</svg>
